# xmcd
#
# Track frame offsets: 
#        150
#        13523
#        31347
#        51055
#        71334
#        84325
#        100611
#        130408
#        159115
#        185291
#        199095
#        217646
#        231016
#        253287
#        268593
#        301664
#        318434
#
# Disc length: 4594 seconds
#
# Revision: 2
# Processed by: cddbd v1.5.2PL0 Copyright (c) Steve Scherf et al.
# Submitted via: ExactAudioCopyFreeDBPlugin 1.0
#
DISCID=cf11f011
DTITLE=Various Artist - Love Train:  The Sound Of Philadelphia [box s
DTITLE=et]
DYEAR=2008
DGENRE=Soul
TTITLE0=The O'Jays - Love Train
TTITLE1=The Stylistics - Break Up to Make Up
TTITLE2=M.F.S.B. - Family Affair
TTITLE3=The Ebonys - It's Forever
TTITLE4=The O'Jays - Time to Get Down
TTITLE5=The Manhattans - There's No Me Without You
TTITLE6=The Intruders - I'll Always Love My Mama
TTITLE7=Harold Melvin and The Blue Notes - The Love I Lost
TTITLE8=The Intruders - I Wanna Know Your Name
TTITLE9=The Three Degrees - Dirty Ol' Man
TTITLE10=The O'Jays - Put Your Hands Together
TTITLE11=Billy Paul - Thanks for Saving My Life
TTITLE12=The Spinners - Mighty Love
TTITLE13=William Devaughn - Be Thankful for What You Got (Pt. 1)
TTITLE14=The O'Jays - For the Love of Money
TTITLE15=The Trammps - Where Do We Go From Here
TTITLE16=M.F.S.B. - T.S.O.P. (The Sound Of Philadelphia) (ft The Three
TTITLE16=Degrees)
EXTD=
EXTT0=
EXTT1=
EXTT2=
EXTT3=
EXTT4=
EXTT5=
EXTT6=
EXTT7=
EXTT8=
EXTT9=
EXTT10=
EXTT11=
EXTT12=
EXTT13=
EXTT14=
EXTT15=
EXTT16=
PLAYORDER=
